<svg version="1.1" id="Layer_1" xmlns="http://www.w3.org/2000/svg" xmlns:xlink="http://www.w3.org/1999/xlink" x="0px" y="0px"
	 width="100%" viewBox="0 0 138 100" enable-background="new 0 0 138 100" xml:space="preserve">
<path fill="#010101" opacity="1.000000" stroke="none" 
	d="
M78.000000,101.000000 
	C52.000004,101.000000 26.500006,101.000000 1.000007,101.000000 
	C1.000005,67.666672 1.000005,34.333347 1.000002,1.000016 
	C46.999989,1.000010 92.999977,1.000010 138.999969,1.000005 
	C138.999985,34.333317 138.999985,67.666634 139.000000,100.999977 
	C118.833336,101.000000 98.666664,101.000000 78.000000,101.000000 
M46.652504,72.993065 
	C48.720718,71.779373 50.788933,70.565674 53.194363,69.154091 
	C53.194363,65.221115 53.194363,61.160439 53.194363,55.601501 
	C57.138737,60.604496 60.001778,58.222759 63.252857,56.295200 
	C70.552513,51.967251 78.010323,47.898182 85.487282,43.879128 
	C95.394966,38.553497 96.412193,36.972740 94.712273,28.218500 
	C83.947800,34.512180 73.148712,40.658543 62.550571,47.133801 
	C59.703247,48.873463 57.483269,49.384983 54.596813,47.494011 
	C51.576115,45.515102 48.297554,43.929806 44.686260,41.925190 
	C44.686260,52.233162 44.657581,61.710865 44.742580,71.187553 
	C44.749138,71.918541 45.555626,72.642365 46.652504,72.993065 
M87.054581,58.200066 
	C87.056374,59.698483 87.058052,61.196899 87.059982,62.695316 
	C87.069649,70.189270 87.713028,71.034950 95.011093,73.232582 
	C95.011093,62.879181 95.011093,52.504032 95.011093,41.486408 
	C83.611748,48.183769 72.762115,54.558159 61.991085,60.886368 
	C66.595100,65.980522 70.943794,66.521431 75.970161,62.546890 
	C78.871811,60.252449 82.345871,58.673782 85.611313,56.861256 
	C85.907837,56.696663 86.563171,57.178524 87.054581,58.200066 
M43.998913,36.818802 
	C48.707706,39.920868 53.416500,43.022930 57.844048,45.939716 
	C60.850285,44.159203 63.434826,42.628452 66.458450,40.837643 
	C58.885693,36.498753 51.804668,32.441601 43.981121,27.959017 
	C43.981121,31.390596 43.981121,33.680206 43.998913,36.818802 
z"/>
<path fill="#F8F8F8" opacity="1.000000" stroke="none" 
	d="
M46.321407,73.181290 
	C45.555626,72.642365 44.749138,71.918541 44.742580,71.187553 
	C44.657581,61.710865 44.686260,52.233162 44.686260,41.925190 
	C48.297554,43.929806 51.576115,45.515102 54.596813,47.494011 
	C57.483269,49.384983 59.703247,48.873463 62.550571,47.133801 
	C73.148712,40.658543 83.947800,34.512180 94.712273,28.218500 
	C96.412193,36.972740 95.394966,38.553497 85.487282,43.879128 
	C78.010323,47.898182 70.552513,51.967251 63.252857,56.295200 
	C60.001778,58.222759 57.138737,60.604496 53.194363,55.601501 
	C53.194363,61.160439 53.194363,65.221115 53.194363,69.154091 
	C50.788933,70.565674 48.720718,71.779373 46.321407,73.181290 
z"/>
<path fill="#F6F7F7" opacity="1.000000" stroke="none" 
	d="
M87.053238,57.780125 
	C86.563171,57.178524 85.907837,56.696663 85.611313,56.861256 
	C82.345871,58.673782 78.871811,60.252449 75.970161,62.546890 
	C70.943794,66.521431 66.595100,65.980522 61.991085,60.886368 
	C72.762115,54.558159 83.611748,48.183769 95.011093,41.486408 
	C95.011093,52.504032 95.011093,62.879181 95.011093,73.232582 
	C87.713028,71.034950 87.069649,70.189270 87.059982,62.695316 
	C87.058052,61.196899 87.056374,59.698483 87.053238,57.780125 
z"/>
<path fill="#F3F3F3" opacity="1.000000" stroke="none" 
	d="
M43.990017,36.394310 
	C43.981121,33.680206 43.981121,31.390596 43.981121,27.959017 
	C51.804668,32.441601 58.885693,36.498753 66.458450,40.837643 
	C63.434826,42.628452 60.850285,44.159203 57.844048,45.939716 
	C53.416500,43.022930 48.707706,39.920868 43.990017,36.394310 
z"/>
</svg>